<svg width="18" height="16" viewBox="0 0 18 16" fill="none" xmlns="http://www.w3.org/2000/svg">
<path d="M16.8864 8.50413L7.51234 15.3791C7.3996 15.4564 7.2648 15.4949 7.12826 15.4889C6.99171 15.483 6.86081 15.4328 6.75525 15.346C6.6497 15.2591 6.5752 15.1404 6.54299 15.0076C6.51078 14.8747 6.52259 14.735 6.57665 14.6095L9.68178 8L6.57665 1.3905C6.5219 1.26491 6.50959 1.12489 6.54159 0.991677C6.57359 0.858461 6.64815 0.73931 6.75397 0.652289C6.85979 0.565268 6.9911 0.515121 7.12798 0.509452C7.26487 0.503783 7.39987 0.542901 7.51253 0.620875L16.8866 7.49588C16.9646 7.55472 17.028 7.63089 17.0716 7.71838C17.1152 7.80587 17.1378 7.90229 17.1378 8.00005C17.1378 8.0978 17.1151 8.19421 17.0715 8.28169C17.0278 8.36916 16.9645 8.44531 16.8864 8.50413ZM8.30628 7.81138L5.29915 0.876562C5.2507 0.764716 5.1706 0.669478 5.06872 0.602572C4.96683 0.535666 4.8476 0.500012 4.72571 0.5H1.48265C1.37974 0.501464 1.27874 0.528089 1.18848 0.57755C1.09822 0.627012 1.02144 0.697808 0.96482 0.783763C0.908205 0.869718 0.873483 0.96822 0.863681 1.07068C0.85388 1.17313 0.869297 1.27643 0.908589 1.37156L3.80778 8.11475L0.911652 14.621C0.87086 14.7163 0.854162 14.8201 0.863035 14.9233C0.871907 15.0266 0.906077 15.126 0.962523 15.2129C1.01897 15.2998 1.09595 15.3715 1.18667 15.4215C1.27739 15.4716 1.37904 15.4986 1.48265 15.5H4.72578C4.847 15.5 4.9656 15.4647 5.06714 15.3985C5.16867 15.3323 5.24876 15.238 5.29765 15.1271L8.30453 8.31188C8.33929 8.23307 8.35739 8.14794 8.35769 8.06181C8.35799 7.97568 8.34049 7.89042 8.30628 7.81138Z" fill="#05AEB5" fill-opacity="0.8"/>
</svg>
